<svg id="Layer_1" data-name="Layer 1" xmlns="http://www.w3.org/2000/svg" viewBox="0 0 200 200"><defs><style>.cls-1{fill:#fdb913;}.cls-2{font-size:68.88px;fill:#fff;font-family:Roboto-Bold, Roboto;font-weight:700;letter-spacing:0.02em;}</style></defs><title>icon</title><path class="cls-1" d="M142.41,81.63H139.5V49.84a25.22,25.22,0,0,0-25.19-25.18H85.69A25.22,25.22,0,0,0,60.5,49.84V61.32a6.35,6.35,0,0,0,12.7,0V49.84A12.5,12.5,0,0,1,85.69,37.36h28.62A12.5,12.5,0,0,1,126.8,49.84V81.63H57.59a8.09,8.09,0,0,0-8.07,8.07v77.56a8.09,8.09,0,0,0,8.07,8.08h84.82a8.09,8.09,0,0,0,8.07-8.08V89.7A8.09,8.09,0,0,0,142.41,81.63Z"/><text class="cls-2" transform="translate(80.24 152.37)">3</text></svg>