<svg id="Layer_1" data-name="Layer 1" xmlns="http://www.w3.org/2000/svg" viewBox="0 0 200 200"><defs><style>.cls-1{fill:#77d62f;}</style></defs><title>icon</title><path class="cls-1" d="M46.7,117.27c10.49,3,24.3,4.69,38.85,4.69,2.89,0,5.76-.06,8.57-.19a47.32,47.32,0,0,1,14.59-23.93A181.56,181.56,0,0,0,85.5,96.4h-.9c-14,0-27.36,1.58-37.58,4.48-10.91,3.05-14.66,6.53-15.13,8a.39.39,0,0,0-.05.21l.1.21C32.26,110.36,35.37,114,46.7,117.27Z"/><path class="cls-1" d="M46.39,141.37c10.54,3.21,24.77,5,40,5,2.73,0,5.43-.07,8.09-.18a47.27,47.27,0,0,1-1.79-12.89,47.79,47.79,0,0,1,.38-5.9c-2.54.09-5.1.15-7.69.15-14.44,0-28.51-1.64-39.58-4.54a69,69,0,0,1-13.13-4.79l.26,15.28v.11C32.94,134.41,35.26,137.94,46.39,141.37Z"/><path class="cls-1" d="M96,150.78q-5.24.28-10.65.29c-14.44,0-28.51-1.63-39.58-4.53a68.38,68.38,0,0,1-13.13-4.8L32.94,157v.11c0,.79,2.32,4.32,13.45,7.74,10.54,3.22,24.77,5,40,5a171.12,171.12,0,0,0,22-1.37A47.52,47.52,0,0,1,96,150.78Z"/><path class="cls-1" d="M150.46,140.27a3.6,3.6,0,0,0-2.79,1.13,4.35,4.35,0,0,0-1.06,3.09v2.33a4.16,4.16,0,0,0,1.12,2.91,3.64,3.64,0,0,0,2.79,1.21c2.53,0,3.79-1.39,3.79-4.19v-2.36a4.21,4.21,0,0,0-1.05-3A3.64,3.64,0,0,0,150.46,140.27Z"/><path class="cls-1" d="M131.65,124.35a4.43,4.43,0,0,0,1-3.08V119a4.3,4.3,0,0,0-1-3,4,4,0,0,0-5.58,0A4.43,4.43,0,0,0,125,119.1v2.27a4.18,4.18,0,0,0,1.07,3,3.68,3.68,0,0,0,2.81,1.13A3.52,3.52,0,0,0,131.65,124.35Z"/><path class="cls-1" d="M140,92.92a40.39,40.39,0,1,0,40.38,40.39A40.39,40.39,0,0,0,140,92.92Zm-21,28.26V119a8.91,8.91,0,0,1,2.7-6.75,9.79,9.79,0,0,1,7.08-2.6,10,10,0,0,1,7.14,2.56,9.11,9.11,0,0,1,2.7,6.94v2.24a8.82,8.82,0,0,1-2.7,6.73,11.14,11.14,0,0,1-14.2,0A9.05,9.05,0,0,1,119.05,121.18Zm12.84,28.94a2.48,2.48,0,1,1-4.2-2.63l19.43-31.1a2.48,2.48,0,0,1,4.21,2.63Zm28.41-3.3a8.86,8.86,0,0,1-2.67,6.71,9.83,9.83,0,0,1-7.11,2.57,9.94,9.94,0,0,1-7.16-2.58,9,9,0,0,1-2.7-6.83v-2.3a8.83,8.83,0,0,1,2.73-6.75,10,10,0,0,1,7.07-2.56,10.09,10.09,0,0,1,7.13,2.53,9.06,9.06,0,0,1,2.71,7Z"/></svg>