<svg id="Layer_1" data-name="Layer 1" xmlns="http://www.w3.org/2000/svg" viewBox="0 0 200 200"><defs><style>.cls-1{fill:#e0013f;}</style></defs><title>icon</title><path class="cls-1" d="M100,3.92A96.08,96.08,0,1,0,196.08,100,96.08,96.08,0,0,0,100,3.92Zm30.36,124.3a23.07,23.07,0,0,1-5.26,7.24,26.65,26.65,0,0,1-8,5,30.52,30.52,0,0,1-10,2.27v7.51H90.36v-9.82c-.88-.4-1.73-.79-2.56-1.12s-1.66-.72-2.45-1.14V142H68.57V116.81H85.35a37.69,37.69,0,0,0,4.24,4.12,23.41,23.41,0,0,0,4.3,2.88,19,19,0,0,0,4.93,1.66A31.46,31.46,0,0,0,105,126a14.2,14.2,0,0,0,7.55-1.86,5.56,5.56,0,0,0,3-4.84,6.59,6.59,0,0,0-1.55-4.39,13.72,13.72,0,0,0-4-3.16,24.77,24.77,0,0,0-5.39-2.1,58.76,58.76,0,0,0-5.82-1.25q-10.15-1.55-16.29-4.8a32.19,32.19,0,0,1-9.4-7.07,19.5,19.5,0,0,1-4.3-7.84,29.78,29.78,0,0,1-1-7.11,22.76,22.76,0,0,1,6.4-15.88,26.53,26.53,0,0,1,7.2-5.28,29,29,0,0,1,9-2.81V49.72h16.78v9.1a27.83,27.83,0,0,1,6.7,2.89v-3.6h16.78V83.24H113.73a52.38,52.38,0,0,0-4-4,18.06,18.06,0,0,0-4.08-2.88A19.6,19.6,0,0,0,101,74.59a27.23,27.23,0,0,0-6-.61c-3.36,0-5.94.84-7.73,2.42a6.77,6.77,0,0,0-2.7,5.13q0,7.81,16.76,10.32c7,1.05,12.48,2.73,16.6,5.08a32.19,32.19,0,0,1,9.42,7.7,20.81,20.81,0,0,1,4.11,8.14,29.62,29.62,0,0,1,.89,6.53A20.84,20.84,0,0,1,130.36,128.22Z"/></svg>