<svg id="Layer_1" data-name="Layer 1" xmlns="http://www.w3.org/2000/svg" viewBox="0 0 200 200"><defs><style>.cls-1{fill:#00a045;}</style></defs><title>icon</title><path class="cls-1" d="M119.87,102.71q-5.28-5.14-16.83-8.62A36.49,36.49,0,0,1,93.54,90a6.32,6.32,0,0,1-3.22-5.37,6.62,6.62,0,0,1,2.75-5.53Q95.82,77,100.78,77q5.14,0,8,2.5a8.29,8.29,0,0,1,2.72,5.26,2.11,2.11,0,0,0,2.1,1.76h9.3A2.12,2.12,0,0,0,125,84.23,18.39,18.39,0,0,0,122.1,76a20,20,0,0,0-8.55-7.2,27.55,27.55,0,0,0-8.17-2.27V60.74a2.66,2.66,0,0,0-2.65-2.65H97.27a2.66,2.66,0,0,0-2.65,2.65V66.8a29.81,29.81,0,0,0-6.22,1.8,19.67,19.67,0,0,0-8.62,6.52,15.87,15.87,0,0,0-3,9.5q0,10.23,11.19,16.28a68.73,68.73,0,0,0,11.14,4.49c4.7,1.52,7.94,3,9.75,4.33a7,7,0,0,1,2.71,5.89,6.41,6.41,0,0,1-2.71,5.48q-2.72,2-7.53,2-11.79,0-12.89-8.94a2.14,2.14,0,0,0-2.11-1.93H77a2.12,2.12,0,0,0-2.12,2.3A18.9,18.9,0,0,0,78,123.37a21.84,21.84,0,0,0,9.5,7.6,31.28,31.28,0,0,0,7.1,2.17v6.12a2.66,2.66,0,0,0,2.65,2.65h5.46a2.66,2.66,0,0,0,2.65-2.65v-5.7a25.62,25.62,0,0,0,13.31-4.67,15.8,15.8,0,0,0,6.45-13.37A17.15,17.15,0,0,0,119.87,102.71Z"/></svg>