<svg id="Layer_1" data-name="Layer 1" xmlns="http://www.w3.org/2000/svg" viewBox="0 0 200 200"><defs><style>.cls-1{fill:#fff;}</style></defs><title>icon</title><path class="cls-1" d="M178,22.17c-3.86-3.86-10.53-4.24-19.29-1.1-6,2.16-12.34,5.78-15.36,8.81L119.06,54.15,39.15,41.6,18.81,61.94,85.25,88,63.92,109.29l-30.28,1.78L19.12,125.58,52,141.44l-9.2,9.2,6.73,6.74,9.2-9.19L74.58,181l14.51-14.51,1.78-30.28,21.69-21.69,26,66.42,20.33-20.33-12.55-79.9,23.92-23.92c3-3,6.64-9.34,8.8-15.37C182.22,32.7,181.84,26,178,22.17ZM35.84,58.38l6.62-6.62,68.27,10.73L92.61,80.61Zm112.91,99-6.61,6.61-22.23-56.75L138,89.08ZM170.12,38.24c-1.82,5.08-4.83,10.1-6.57,11.84l-82,82-1.78,30.28-2.47,2.47L65.84,141.05l8.28-8.28L67.39,126l-8.27,8.26L35.35,122.83l2.47-2.47,30.27-1.77,82-82c1.75-1.74,6.77-4.75,11.85-6.57,5.76-2.06,8.82-1.64,9.33-1.13S172.18,32.48,170.12,38.24Z"/></svg>