<svg id="Layer_1" data-name="Layer 1" xmlns="http://www.w3.org/2000/svg" viewBox="0 0 200 200"><defs><style>.cls-1{fill:#fff;}</style></defs><title>icon</title><path class="cls-1" d="M100,187.75c-47.54,0-86.22-39.36-86.22-87.75S52.46,12.25,100,12.25,186.22,51.62,186.22,100,147.54,187.75,100,187.75Zm0-166.6c-42.63,0-77.32,35.37-77.32,78.85S57.37,178.85,100,178.85s77.32-35.37,77.32-78.85S142.63,21.15,100,21.15Zm0,149.52h0a6,6,0,0,1-5.47-3.5L81.38,138.71l-19.54,7.23a6,6,0,0,1-7.75-7.7l7.11-19.66L32.83,105.47a6,6,0,0,1,0-10.93L61.17,81.43,53.85,62a6,6,0,0,1,7.65-7.8l19.88,7.06L94.53,32.83a6,6,0,0,1,5.47-3.5h0a6,6,0,0,1,5.47,3.5l13.12,28.38,19.62-7.12a6,6,0,0,1,7.7,7.75L138.7,81.37l28.48,13.17a6,6,0,0,1,3.49,5.46,6,6,0,0,1-3.5,5.47l-28.49,13.16,7,19.73a6,6,0,0,1-7.8,7.66l-19.31-7.25-13.13,28.41A6,6,0,0,1,100,170.67ZM82.85,129.08a6.06,6.06,0,0,1,5.49,3.49L100,157.8l11.65-25.19a6,6,0,0,1,7.58-3.11l16,6-5.83-16.37a6,6,0,0,1,3.13-7.48L157.79,100,132.56,88.33a6.06,6.06,0,0,1-3.12-7.56l6-16.2-16.28,5.9a6,6,0,0,1-7.52-3.14L100,42.2,88.36,67.37a6,6,0,0,1-7.48,3.15L64.36,64.66l6.08,16.13a6.05,6.05,0,0,1-3.1,7.59L42.21,100l25.12,11.61a6,6,0,0,1,3.13,7.51l-5.9,16.33,16.22-6A6,6,0,0,1,82.85,129.08Zm36.88,7.26h0Z"/></svg>