<svg id="Layer_1" data-name="Layer 1" xmlns="http://www.w3.org/2000/svg" viewBox="0 0 200 200"><defs><style>.cls-1{fill:#00b4c5;}</style></defs><title>icon</title><path class="cls-1" d="M9.74,98.34H20.05l4.06,33.34c2.17,17.84,10,34.2,22,46s27.42,18.36,43.37,18.36a59.61,59.61,0,0,0,29.57-7.91c.55-.23,26.34-10.81,50.84,1.86a5.16,5.16,0,0,0,2.42.6,5.65,5.65,0,0,0,4.86-3c15.66-27,18.75-59.64,18.87-61a7,7,0,0,0-2.14-5.78,5.28,5.28,0,0,0-5.45-1.14L155.3,119c29.25-14.07,24.9-56.86,19.36-68.3l-1.42-3.91c8.41-23.57-2.09-41.94-4.12-42.58a5.34,5.34,0,0,0-5.69,1.68s-20.1,32.68-44.19,39.27c-17.13,4.68-30.1,19.27-40.35,35.06L78,76.51C75,61.05,62.67,49.84,48.65,49.84c-8.7,0-17,4.25-22.67,11.65a36,36,0,0,0-7,16.62l-12.19,8a7,7,0,0,0-2.7,7.4A6,6,0,0,0,9.74,98.34Z"/></svg>