<svg id="Layer_1" data-name="Layer 1" xmlns="http://www.w3.org/2000/svg" viewBox="0 0 629.3 250"><defs><style>.cls-1{fill:#fff;}</style></defs><title>icon</title><path class="cls-1" d="M120.78,20.57A104.43,104.43,0,1,0,225.21,125,104.42,104.42,0,0,0,120.78,20.57Zm83.3,106.25L164.69,145a2,2,0,0,0-1.05,2.49l10.09,28.32a2,2,0,0,1-2.6,2.55l-27.82-10.45a2,2,0,0,0-2.52,1L122.6,208.3a2,2,0,0,1-3.64,0l-18.21-39.38a2,2,0,0,0-2.51-1l-28.1,10.39a2,2,0,0,1-2.58-2.57l10.21-28.24a2,2,0,0,0-1-2.51L37.49,126.83a2,2,0,0,1,0-3.65L76.73,105a2,2,0,0,0,1-2.53l-10.54-28a2,2,0,0,1,2.55-2.6l28.5,10.12a2,2,0,0,0,2.5-1L119,41.7a2,2,0,0,1,3.65,0L140.75,81a2,2,0,0,0,2.5,1l28.2-10.22A2,2,0,0,1,174,74.36l-10.36,28.08a2,2,0,0,0,1,2.52l39.39,18.22A2,2,0,0,1,204.08,126.82Z"/><path class="cls-1" d="M296.5,59.13a14.6,14.6,0,0,0-9.69-3.81c-8.17,0-13.12,6.21-13.12,14.05,0,6.26,3.64,12.74,13.12,12.74a12.71,12.71,0,0,0,8.6-3V72.31h-9.75V65.88H302V81.94a19,19,0,0,1-15.19,6.86c-14.32,0-20.15-9.41-20.15-19.43,0-10.73,6.7-20.64,20.15-20.64A20.11,20.11,0,0,1,301,54.56Z"/><path class="cls-1" d="M319.41,49.82V81.29H339v6.64H312.23V49.82Z"/><path class="cls-1" d="M384.74,69.1c-.1,9.85-6.15,19.7-19.54,19.7s-19.6-9.63-19.6-19.65S352,49.06,365.2,49.06,384.85,59.13,384.74,69.1Zm-32.06.16c.16,6.26,3.54,13,12.52,13s12.36-6.75,12.47-13c.11-6.42-3.49-13.61-12.47-13.61S352.51,62.83,352.68,69.26Z"/><path class="cls-1" d="M425.36,60.87a7.75,7.75,0,0,1-5,7.35c4.47,1.37,6.1,6.1,6.1,8.5,0,8.49-6.37,11.21-14.27,11.21H394.16V49.82h18.07C419.75,49.82,425.36,53.2,425.36,60.87Zm-24.12,4.25h11c4.52,0,6-1.9,6-4.08,0-1.74-1.41-4.68-6-4.68h-11Zm0,16.12h11c2.94,0,7.14-1,7.14-4.58,0-3.43-4.2-5.22-7.14-5.22h-11Z"/><path class="cls-1" d="M463,80.75H443.05l-3.27,7.18H432l17.1-38.11h7.84L474,87.93h-7.84ZM453,57.83l-7.08,16.22h14.16Z"/><path class="cls-1" d="M489.37,49.82V81.29H509v6.64H482.19V49.82Z"/><path class="cls-1" d="M301.78,139.32A20.1,20.1,0,0,1,287.3,145c-14.16,0-20.15-9.75-20.2-19.66s6.42-20.09,20.2-20.09a19.65,19.65,0,0,1,14,5.83l-4.79,4.63a13.11,13.11,0,0,0-9.2-3.6c-9.2,0-13.18,6.86-13.12,13.23s3.7,12.91,13.12,12.91a14,14,0,0,0,9.58-3.87Z"/><path class="cls-1" d="M310.27,144.11V106h7.13v38.11Z"/><path class="cls-1" d="M340.1,112.53H328V106h31.36v6.53H347.29v31.58H340.1Z"/><path class="cls-1" d="M368.14,144.11V106h7.13v38.11Z"/><path class="cls-1" d="M385.77,106h29.3v3.37L395.3,137.3h19.77v6.81H385.28V140l19.33-27.22H385.77Z"/><path class="cls-1" d="M452.19,144.11H423.66V106h28.53v7H430.8v8.76h20.63v6.7H430.8V137h21.39Z"/><path class="cls-1" d="M488.29,105.94h7.18v38.17H491v0l-20-25.75v25.7h-7.18V106h5.82l18.68,23.63Z"/><path class="cls-1" d="M291.71,171.37c-1.31-2.18-4.9-4.24-9-4.24-5.34,0-7.9,2.23-7.9,5.06,0,3.32,3.92,4.25,8.5,4.79,8,1,15.35,3.05,15.35,12.14,0,8.49-7.51,12.14-16,12.14-7.78,0-13.77-2.39-16.6-9.36l6-3.11c1.69,4.2,6.1,6.05,10.72,6.05s8.77-1.58,8.77-5.72c0-3.59-3.76-5.06-8.82-5.61-7.79-.92-15-3-15-11.54,0-7.84,7.73-11.05,14.75-11.11,5.94,0,12.09,1.69,15,7.57Z"/><path class="cls-1" d="M346,181.44c-.1,9.86-6.15,19.71-19.54,19.71s-19.6-9.63-19.6-19.65,6.42-20.09,19.6-20.09S346.09,171.48,346,181.44Zm-32.06.17c.16,6.26,3.54,13,12.52,13s12.36-6.76,12.47-13c.11-6.42-3.49-13.61-12.47-13.61S313.75,175.18,313.92,181.61Z"/><path class="cls-1" d="M362.8,162.17v31.47h19.6v6.64H355.62V162.17Z"/><path class="cls-1" d="M423,162.23v21.83c0,11.27-6.92,17-16.5,17-9.15,0-16.93-5.55-16.93-17V162.23h7.13v21.83c0,6.86,3.92,10.51,9.85,10.51s9.31-4,9.31-10.51V162.23Z"/><path class="cls-1" d="M444.24,168.7H432.16v-6.53h31.36v6.53H451.43v31.58h-7.19Z"/><path class="cls-1" d="M472.28,200.28V162.17h7.13v38.11Z"/><path class="cls-1" d="M529.12,181.44c-.11,9.86-6.15,19.71-19.55,19.71S490,191.52,490,181.5s6.43-20.09,19.6-20.09S529.23,171.48,529.12,181.44Zm-32.07.17c.16,6.26,3.54,13,12.52,13s12.36-6.76,12.47-13c.11-6.42-3.48-13.61-12.47-13.61S496.89,175.18,497.05,181.61Z"/><path class="cls-1" d="M563.79,162.12H571v38.16h-4.46v.06l-20-25.76v25.7h-7.19V162.17h5.83l18.67,23.63Z"/><path class="cls-1" d="M606,171.37c-1.31-2.18-4.9-4.24-9-4.24-5.34,0-7.89,2.23-7.89,5.06,0,3.32,3.92,4.25,8.49,4.79C605.55,178,613,180,613,189.12c0,8.49-7.51,12.14-16,12.14-7.79,0-13.78-2.39-16.61-9.36l6-3.11c1.69,4.2,6.1,6.05,10.73,6.05s8.76-1.58,8.76-5.72c0-3.59-3.76-5.06-8.82-5.61-7.78-.92-15-3-15-11.54,0-7.84,7.73-11.05,14.75-11.11,5.94,0,12.09,1.69,15,7.57Z"/></svg>