<svg id="Layer_1" data-name="Layer 1" xmlns="http://www.w3.org/2000/svg" viewBox="0 0 1373.6 176.27"><defs><style>.cls-1{fill:#fff;}.cls-2{fill:#007ac1;}</style></defs><title>icon</title><path class="cls-1" d="M229.47,64.07a24.32,24.32,0,0,1,20.86,10.78L242.89,79a16.47,16.47,0,0,0-13.42-6.9c-10.24,0-17.84,7.83-17.84,18.69s7.6,18.77,17.84,18.77A19,19,0,0,0,241.72,105V96.88H226.29v-8H250.8v19.39a28.07,28.07,0,0,1-21.33,9.39c-15,0-27.15-10.63-27.15-26.84S214.5,64.07,229.47,64.07Z"/><path class="cls-1" d="M271.1,64.92h9.08v43.75H303v8H271.1Z"/><path class="cls-1" d="M343.84,64.07c15.52,0,26.45,11.33,26.45,26.76s-10.93,26.76-26.45,26.76S317.4,106.27,317.4,90.83,328.33,64.07,343.84,64.07Zm0,8.07c-10.47,0-17.14,8-17.14,18.69s6.67,18.69,17.14,18.69S361,101.46,361,90.83,354.24,72.14,343.84,72.14Z"/><path class="cls-1" d="M389.9,64.92h25.44c9.46,0,14.74,5.9,14.74,13.19,0,6.51-4.19,10.86-9,11.87,5.51.85,10,6.36,10,12.72,0,8-5.36,14-15,14H389.9Zm23.58,21.41c4.65,0,7.29-2.79,7.29-6.67s-2.64-6.75-7.29-6.75H399V86.33Zm.39,22.34c5,0,7.91-2.72,7.91-7.21,0-3.88-2.72-7.14-7.91-7.14H399v14.35Z"/><path class="cls-1" d="M483.81,106.73H459.3l-3.8,9.93h-9.93L465.9,64.92h11.32l20.32,51.74h-9.93Zm-21.95-8h19.39L471.56,72.6Z"/><path class="cls-1" d="M514.05,64.92h9.07v43.75h22.8v8H514.05Z"/><path class="cls-1" d="M595.78,64.92H618.5c10.86,0,16.91,7.45,16.91,16.21s-6.13,16.22-16.91,16.22H604.85v19.31h-9.07Zm21.48,8H604.85V89.36h12.41c5.12,0,8.84-3.26,8.84-8.23S622.38,72.91,617.26,72.91Z"/><path class="cls-1" d="M680.77,106.73H656.26l-3.8,9.93h-9.93l20.32-51.74h11.33l20.32,51.74h-9.93Zm-21.95-8h19.39L668.52,72.6Z"/><path class="cls-1" d="M711.94,102.39a22.29,22.29,0,0,0,16.36,7.13c7.45,0,10.39-3.64,10.39-7.06,0-4.65-5.5-6-11.79-7.68-8.45-2.09-18.38-4.57-18.38-15.51,0-8.53,7.53-15.12,18.85-15.12,8.07,0,14.58,2.56,19.39,7.21l-5.2,6.75a21,21,0,0,0-15-5.9c-5.35,0-8.76,2.56-8.76,6.44,0,4,5.27,5.35,11.4,6.91,8.53,2.17,18.69,4.8,18.69,16,0,8.61-6,16-20,16-9.54,0-16.44-3.34-21-8.22Z"/><path class="cls-1" d="M768.85,102.39a22.32,22.32,0,0,0,16.37,7.13c7.44,0,10.39-3.64,10.39-7.06,0-4.65-5.51-6-11.79-7.68-8.45-2.09-18.38-4.57-18.38-15.51,0-8.53,7.52-15.12,18.85-15.12,8.06,0,14.58,2.56,19.39,7.21l-5.2,6.75a21,21,0,0,0-15-5.9c-5.35,0-8.76,2.56-8.76,6.44,0,4,5.27,5.35,11.4,6.91,8.53,2.17,18.69,4.8,18.69,16,0,8.61-6.05,16-20,16-9.54,0-16.44-3.34-21-8.22Z"/><path class="cls-1" d="M824.06,64.92h22.73c10.86,0,16.91,7.45,16.91,16.21s-6.13,16.22-16.91,16.22H833.14v19.31h-9.08Zm21.49,8H833.14V89.36h12.41c5.12,0,8.84-3.26,8.84-8.23S850.67,72.91,845.55,72.91Z"/><path class="cls-1" d="M906.19,64.07c15.51,0,26.44,11.33,26.44,26.76s-10.93,26.76-26.44,26.76-26.45-11.32-26.45-26.76S890.67,64.07,906.19,64.07Zm0,8.07c-10.48,0-17.15,8-17.15,18.69s6.67,18.69,17.15,18.69,17.14-8.06,17.14-18.69S916.58,72.14,906.19,72.14Z"/><path class="cls-1" d="M970.31,97.35h-9v19.31h-9.08V64.92H975c10.23,0,16.91,6.67,16.91,16.21,0,9.23-6.06,14.2-12.26,15.21l12.64,20.32H981.79Zm3.42-24.44H961.32V89.36h12.41c5.11,0,8.84-3.26,8.84-8.23S978.84,72.91,973.73,72.91Z"/><path class="cls-1" d="M1023.35,72.91h-15.67v-8h40.41v8h-15.66v43.75h-9.08Z"/><path class="cls-1" d="M1097.4,64.92h9.08v51.74h-9.08Z"/><path class="cls-1" d="M1137.42,79v37.7h-9.08V64.92h9.31l26.45,36.69V64.92h9.07v51.74h-8.76Z"/><path class="cls-1" d="M1195,64.92h19.23c16.14,0,27.07,10.71,27.07,25.91s-10.93,25.83-27.07,25.83H1195Zm19.23,43.75c11.25,0,17.76-8.07,17.76-17.84,0-10-6.2-17.92-17.76-17.92H1204.1v35.76Z"/><path class="cls-1" d="M1260.94,64.92h35.44v8H1270V86.33h25.83v8H1270v14.35h26.37v8h-35.44Z"/><path class="cls-1" d="M1336.63,96.41l-14.51,20.25h-10.86l19.39-26.53-18.22-25.21h10.85l13.35,19,13.26-19h10.94l-18.15,25.13L1362,116.66h-10.86Z"/><rect class="cls-2" x="11.61" y="16.4" width="108.02" height="143.46" rx="8.44"/><path class="cls-1" d="M65.62,35.37c-21.13,0-38.27,17.45-38.27,39s17.14,39,38.27,39,38.26-17.46,38.26-39S86.75,35.37,65.62,35.37ZM81.34,82.61,85.05,93a.74.74,0,0,1-1,.93L73.89,90.1a.73.73,0,0,0-.93.38l-6.67,14.43a.74.74,0,0,1-1.34,0L58.27,90.46a.73.73,0,0,0-.92-.38L47,93.89a.74.74,0,0,1-.95-.94l3.75-10.36a.74.74,0,0,0-.38-.92L35.06,75a.74.74,0,0,1,0-1.34L49.46,67a.74.74,0,0,0,.38-.93L46,55.83a.74.74,0,0,1,.94-.95l10.46,3.71a.73.73,0,0,0,.91-.39L65,43.79a.74.74,0,0,1,1.34,0l6.65,14.4a.74.74,0,0,0,.92.38l10.35-3.75a.74.74,0,0,1,.94,1l-3.8,10.3a.74.74,0,0,0,.38.93l14.45,6.68a.74.74,0,0,1,0,1.34L81.73,81.69A.75.75,0,0,0,81.34,82.61Z"/><path class="cls-1" d="M86.29,137.28H44.94a1.89,1.89,0,1,1,0-3.78H86.29a1.89,1.89,0,1,1,0,3.78Z"/></svg>