<svg id="Layer_1" data-name="Layer 1" xmlns="http://www.w3.org/2000/svg" viewBox="0 0 200 200"><defs><style>.cls-1{fill:#00a045;}</style></defs><title>icon</title><path class="cls-1" d="M43.42,141.34c10.49,3,24.3,4.7,38.85,4.7,3,0,5.93-.08,8.83-.21a47.23,47.23,0,0,1,0-25.15c-2.94-.14-5.92-.21-8.92-.21h-.89c-14,0-27.36,1.58-37.59,4.48-10.91,3.06-14.65,6.54-15.13,8a.43.43,0,0,0-.05.21l.11.21C29,134.44,32.08,138,43.42,141.34Z"/><path class="cls-1" d="M92.76,150.78c-3.49.19-7.05.29-10.65.29-14.45,0-28.52-1.63-39.59-4.53a68.63,68.63,0,0,1-13.13-4.8L29.66,157v.11c0,.79,2.32,4.32,13.44,7.74,10.54,3.22,24.78,5,40,5a171,171,0,0,0,22-1.37A47.39,47.39,0,0,1,92.76,150.78Z"/><path class="cls-1" d="M147.18,140.27a3.64,3.64,0,0,0-2.8,1.13,4.35,4.35,0,0,0-1,3.09v2.33a4.11,4.11,0,0,0,1.12,2.91,3.61,3.61,0,0,0,2.79,1.21c2.52,0,3.79-1.39,3.79-4.19v-2.36a4.22,4.22,0,0,0-1.06-3A3.6,3.6,0,0,0,147.18,140.27Z"/><path class="cls-1" d="M128.37,124.35a4.47,4.47,0,0,0,1-3.08V119a4.34,4.34,0,0,0-1-3,4,4,0,0,0-5.59,0,4.47,4.47,0,0,0-1,3.15v2.27a4.14,4.14,0,0,0,1.07,3,3.66,3.66,0,0,0,2.81,1.13A3.52,3.52,0,0,0,128.37,124.35Z"/><path class="cls-1" d="M136.72,92.92a40.39,40.39,0,1,0,40.39,40.39A40.39,40.39,0,0,0,136.72,92.92Zm-21,28.26V119a8.91,8.91,0,0,1,2.7-6.75,9.79,9.79,0,0,1,7.08-2.6,10,10,0,0,1,7.13,2.56,9.11,9.11,0,0,1,2.7,6.94v2.24a8.82,8.82,0,0,1-2.7,6.73,9.88,9.88,0,0,1-7.07,2.55,10,10,0,0,1-7.13-2.56A9,9,0,0,1,115.77,121.18Zm12.84,28.94a2.48,2.48,0,0,1-4.21-2.63l19.43-31.1A2.48,2.48,0,0,1,148,119Zm28.41-3.3a8.86,8.86,0,0,1-2.67,6.71,9.83,9.83,0,0,1-7.11,2.57,10,10,0,0,1-7.17-2.58,9,9,0,0,1-2.7-6.83v-2.3a8.83,8.83,0,0,1,2.73-6.75,11.18,11.18,0,0,1,14.2,0,9.07,9.07,0,0,1,2.72,7Z"/></svg>