<svg id="Layer_1" data-name="Layer 1" xmlns="http://www.w3.org/2000/svg" viewBox="0 0 200 200"><defs><style>.cls-1{fill:#77d62f;}</style></defs><title>icon</title><path class="cls-1" d="M89.48,102.71q-5.28-5.14-16.83-8.62A36.4,36.4,0,0,1,63.16,90a6.34,6.34,0,0,1-3.23-5.37,6.64,6.64,0,0,1,2.75-5.53Q65.44,77,70.4,77q5.14,0,8,2.5a8.31,8.31,0,0,1,2.73,5.26,2.09,2.09,0,0,0,2.09,1.76h9.31a2.13,2.13,0,0,0,2.13-2.33A18.51,18.51,0,0,0,91.72,76a20,20,0,0,0-8.55-7.2A27.53,27.53,0,0,0,75,66.53V60.74a2.65,2.65,0,0,0-2.65-2.65H66.89a2.65,2.65,0,0,0-2.65,2.65V66.8A29.46,29.46,0,0,0,58,68.6a19.61,19.61,0,0,0-8.62,6.52,15.87,15.87,0,0,0-3,9.5q0,10.23,11.19,16.28a68.36,68.36,0,0,0,11.14,4.49q7,2.28,9.74,4.33a6.94,6.94,0,0,1,2.71,5.89,6.38,6.38,0,0,1-2.71,5.48q-2.7,2-7.53,2-11.79,0-12.88-8.94a2.15,2.15,0,0,0-2.12-1.93H46.61a2.13,2.13,0,0,0-2.13,2.3,18.91,18.91,0,0,0,3.16,8.89,21.84,21.84,0,0,0,9.5,7.6,31,31,0,0,0,7.1,2.17v6.12a2.65,2.65,0,0,0,2.65,2.65h5.45A2.65,2.65,0,0,0,75,139.26v-5.7a25.63,25.63,0,0,0,13.32-4.67,15.8,15.8,0,0,0,6.45-13.37A17.16,17.16,0,0,0,89.48,102.71Z"/><path class="cls-1" d="M150.25,102.71q-5.28-5.14-16.83-8.62A36.4,36.4,0,0,1,123.93,90a6.34,6.34,0,0,1-3.23-5.37,6.64,6.64,0,0,1,2.75-5.53Q126.21,77,131.17,77q5.15,0,8,2.5a8.31,8.31,0,0,1,2.73,5.26A2.09,2.09,0,0,0,144,86.56h9.31a2.13,2.13,0,0,0,2.13-2.33A18.4,18.4,0,0,0,152.48,76a20,20,0,0,0-8.54-7.2,27.53,27.53,0,0,0-8.18-2.27V60.74a2.65,2.65,0,0,0-2.65-2.65h-5.45A2.65,2.65,0,0,0,125,60.74V66.8a29.73,29.73,0,0,0-6.23,1.8,19.63,19.63,0,0,0-8.61,6.52,15.87,15.87,0,0,0-3,9.5q0,10.23,11.19,16.28a68.36,68.36,0,0,0,11.14,4.49q7,2.28,9.74,4.33a6.94,6.94,0,0,1,2.71,5.89,6.38,6.38,0,0,1-2.71,5.48q-2.7,2-7.53,2-11.79,0-12.88-8.94a2.15,2.15,0,0,0-2.12-1.93h-9.33a2.12,2.12,0,0,0-2.13,2.3,18.91,18.91,0,0,0,3.16,8.89,21.78,21.78,0,0,0,9.5,7.6,31,31,0,0,0,7.1,2.17v6.12a2.65,2.65,0,0,0,2.65,2.65h5.45a2.65,2.65,0,0,0,2.65-2.65v-5.7a25.63,25.63,0,0,0,13.32-4.67,15.8,15.8,0,0,0,6.45-13.37A17.16,17.16,0,0,0,150.25,102.71Z"/></svg>