<svg id="Layer_1" data-name="Layer 1" xmlns="http://www.w3.org/2000/svg" viewBox="0 0 200 200"><defs><style>.cls-1{fill:#e0013f;}</style></defs><title>icon</title><path class="cls-1" d="M131.9,100l36.36-36.36a15.74,15.74,0,0,0,0-22.19l-9.7-9.71a15.75,15.75,0,0,0-22.2,0L100,68.1,63.64,31.74a15.75,15.75,0,0,0-22.2,0l-9.7,9.7a15.75,15.75,0,0,0,0,22.2L68.1,100,31.74,136.36a15.75,15.75,0,0,0,0,22.2l9.7,9.7a15.75,15.75,0,0,0,22.2,0L100,131.9l36.36,36.36a15.75,15.75,0,0,0,22.2,0l9.7-9.7a15.75,15.75,0,0,0,0-22.2Z"/></svg>