<svg id="Layer_1" data-name="Layer 1" xmlns="http://www.w3.org/2000/svg" viewBox="0 0 317.55 200"><defs><style>.cls-1{fill:#f58220;}</style></defs><title>icon</title><path class="cls-1" d="M87.49,102.71q-5.28-5.14-16.83-8.62A36.4,36.4,0,0,1,61.17,90a6.31,6.31,0,0,1-3.23-5.37,6.64,6.64,0,0,1,2.75-5.53Q63.45,77,68.41,77c3.42,0,6.09.83,8,2.5a8.25,8.25,0,0,1,2.72,5.26,2.11,2.11,0,0,0,2.1,1.76h9.31a2.12,2.12,0,0,0,2.12-2.33A18.39,18.39,0,0,0,89.72,76a20,20,0,0,0-8.55-7.2A27.39,27.39,0,0,0,73,66.53V60.74a2.65,2.65,0,0,0-2.65-2.65H64.9a2.65,2.65,0,0,0-2.65,2.65V66.8A29.73,29.73,0,0,0,56,68.6a19.63,19.63,0,0,0-8.61,6.52,15.87,15.87,0,0,0-3,9.5q0,10.23,11.18,16.28a68.9,68.9,0,0,0,11.15,4.49q7,2.28,9.74,4.33a6.94,6.94,0,0,1,2.71,5.89,6.38,6.38,0,0,1-2.71,5.48q-2.7,2-7.53,2-11.79,0-12.88-8.94A2.16,2.16,0,0,0,54,112.18H44.62a2.12,2.12,0,0,0-2.13,2.3,18.91,18.91,0,0,0,3.16,8.89,21.81,21.81,0,0,0,9.49,7.6,31.2,31.2,0,0,0,7.11,2.17v6.12a2.65,2.65,0,0,0,2.65,2.65h5.45A2.65,2.65,0,0,0,73,139.26v-5.7a25.63,25.63,0,0,0,13.32-4.67,15.8,15.8,0,0,0,6.45-13.37A17.16,17.16,0,0,0,87.49,102.71Z"/><path class="cls-1" d="M148.26,102.71q-5.28-5.14-16.83-8.62a36.49,36.49,0,0,1-9.5-4.06,6.32,6.32,0,0,1-3.22-5.37,6.64,6.64,0,0,1,2.75-5.53Q124.22,77,129.18,77c3.42,0,6.09.83,8,2.5a8.25,8.25,0,0,1,2.72,5.26,2.11,2.11,0,0,0,2.1,1.76h9.31a2.12,2.12,0,0,0,2.12-2.33A18.39,18.39,0,0,0,150.49,76a20,20,0,0,0-8.55-7.2,27.47,27.47,0,0,0-8.17-2.27V60.74a2.65,2.65,0,0,0-2.65-2.65h-5.45A2.65,2.65,0,0,0,123,60.74V66.8a29.73,29.73,0,0,0-6.23,1.8,19.63,19.63,0,0,0-8.61,6.52,15.87,15.87,0,0,0-3,9.5q0,10.23,11.18,16.28a68.52,68.52,0,0,0,11.15,4.49q7,2.28,9.74,4.33a6.94,6.94,0,0,1,2.71,5.89,6.38,6.38,0,0,1-2.71,5.48q-2.7,2-7.53,2-11.79,0-12.88-8.94a2.16,2.16,0,0,0-2.12-1.93h-9.33a2.12,2.12,0,0,0-2.13,2.3,18.91,18.91,0,0,0,3.16,8.89,21.81,21.81,0,0,0,9.49,7.6,31.2,31.2,0,0,0,7.11,2.17v6.12a2.65,2.65,0,0,0,2.65,2.65h5.45a2.65,2.65,0,0,0,2.65-2.65v-5.7a25.63,25.63,0,0,0,13.32-4.67,15.8,15.8,0,0,0,6.45-13.37A17.16,17.16,0,0,0,148.26,102.71Z"/><path class="cls-1" d="M209,102.71q-5.28-5.14-16.83-8.62A36.49,36.49,0,0,1,182.7,90a6.32,6.32,0,0,1-3.22-5.37,6.64,6.64,0,0,1,2.75-5.53C184.06,77.74,186.64,77,190,77s6.09.83,8,2.5a8.25,8.25,0,0,1,2.72,5.26,2.11,2.11,0,0,0,2.1,1.76h9.31a2.12,2.12,0,0,0,2.12-2.33A18.39,18.39,0,0,0,211.26,76a20,20,0,0,0-8.55-7.2,27.47,27.47,0,0,0-8.17-2.27V60.74a2.65,2.65,0,0,0-2.65-2.65h-5.45a2.66,2.66,0,0,0-2.66,2.65V66.8a29.81,29.81,0,0,0-6.22,1.8,19.67,19.67,0,0,0-8.62,6.52,15.87,15.87,0,0,0-3,9.5q0,10.23,11.19,16.28a68.52,68.52,0,0,0,11.15,4.49q7,2.28,9.74,4.33a7,7,0,0,1,2.71,5.89,6.41,6.41,0,0,1-2.71,5.48c-1.8,1.31-4.32,2-7.53,2q-11.79,0-12.88-8.94a2.16,2.16,0,0,0-2.12-1.93h-9.34a2.12,2.12,0,0,0-2.12,2.3,18.91,18.91,0,0,0,3.16,8.89,21.81,21.81,0,0,0,9.49,7.6,31.28,31.28,0,0,0,7.1,2.17v6.12a2.66,2.66,0,0,0,2.66,2.65h5.45a2.65,2.65,0,0,0,2.65-2.65v-5.7a25.63,25.63,0,0,0,13.32-4.67,15.8,15.8,0,0,0,6.45-13.37A17.16,17.16,0,0,0,209,102.71Z"/><path class="cls-1" d="M269.8,102.71q-5.28-5.14-16.83-8.62a36.49,36.49,0,0,1-9.5-4.06,6.32,6.32,0,0,1-3.22-5.37A6.64,6.64,0,0,1,243,79.13c1.83-1.39,4.41-2.09,7.71-2.09s6.09.83,8,2.5a8.25,8.25,0,0,1,2.72,5.26,2.11,2.11,0,0,0,2.1,1.76h9.3A2.12,2.12,0,0,0,275,84.23,18.39,18.39,0,0,0,272,76a20,20,0,0,0-8.55-7.2,27.47,27.47,0,0,0-8.17-2.27V60.74a2.66,2.66,0,0,0-2.65-2.65h-5.45a2.66,2.66,0,0,0-2.66,2.65V66.8a29.81,29.81,0,0,0-6.22,1.8,19.67,19.67,0,0,0-8.62,6.52,15.87,15.87,0,0,0-3,9.5q0,10.23,11.19,16.28a68.52,68.52,0,0,0,11.15,4.49q7,2.28,9.74,4.33a7,7,0,0,1,2.71,5.89,6.41,6.41,0,0,1-2.71,5.48c-1.8,1.31-4.32,2-7.53,2q-11.79,0-12.88-8.94a2.16,2.16,0,0,0-2.12-1.93h-9.34a2.12,2.12,0,0,0-2.12,2.3,19,19,0,0,0,3.15,8.89,21.9,21.9,0,0,0,9.5,7.6,31.28,31.28,0,0,0,7.1,2.17v6.12a2.66,2.66,0,0,0,2.66,2.65h5.45a2.66,2.66,0,0,0,2.65-2.65v-5.7a25.62,25.62,0,0,0,13.31-4.67,15.81,15.81,0,0,0,6.46-13.37A17.16,17.16,0,0,0,269.8,102.71Z"/></svg>