<svg id="Layer_1" data-name="Layer 1" xmlns="http://www.w3.org/2000/svg" viewBox="0 0 317.55 200"><defs><style>.cls-1{fill:#c4161c;}</style></defs><title>icon</title><path class="cls-1" d="M57.1,102.71q-5.26-5.14-16.82-8.62A36.49,36.49,0,0,1,30.78,90a6.32,6.32,0,0,1-3.22-5.37,6.62,6.62,0,0,1,2.75-5.53Q33.06,77,38,77q5.15,0,8,2.5a8.34,8.34,0,0,1,2.72,5.26,2.1,2.1,0,0,0,2.1,1.76h9.3a2.13,2.13,0,0,0,2.13-2.33A18.51,18.51,0,0,0,59.34,76a20,20,0,0,0-8.55-7.2,27.53,27.53,0,0,0-8.18-2.27V60.74A2.65,2.65,0,0,0,40,58.09H34.51a2.65,2.65,0,0,0-2.65,2.65V66.8a29.63,29.63,0,0,0-6.22,1.8A19.61,19.61,0,0,0,17,75.12a15.87,15.87,0,0,0-3,9.5q0,10.23,11.19,16.28a68.73,68.73,0,0,0,11.14,4.49q7,2.28,9.75,4.33a7,7,0,0,1,2.7,5.89,6.4,6.4,0,0,1-2.7,5.48q-2.72,2-7.54,2-11.78,0-12.88-8.94a2.15,2.15,0,0,0-2.11-1.93H14.23a2.13,2.13,0,0,0-2.13,2.3,18.91,18.91,0,0,0,3.16,8.89,21.84,21.84,0,0,0,9.5,7.6,31,31,0,0,0,7.1,2.17v6.12a2.65,2.65,0,0,0,2.65,2.65H40a2.65,2.65,0,0,0,2.65-2.65v-5.7a25.63,25.63,0,0,0,13.32-4.67,15.8,15.8,0,0,0,6.45-13.37A17.16,17.16,0,0,0,57.1,102.71Z"/><path class="cls-1" d="M117.87,102.71q-5.28-5.14-16.82-8.62A36.49,36.49,0,0,1,91.55,90a6.34,6.34,0,0,1-3.23-5.37,6.63,6.63,0,0,1,2.76-5.53Q93.82,77,98.79,77q5.14,0,8,2.5a8.34,8.34,0,0,1,2.72,5.26,2.1,2.1,0,0,0,2.1,1.76h9.3A2.13,2.13,0,0,0,123,84.23,18.51,18.51,0,0,0,120.11,76a20,20,0,0,0-8.55-7.2,27.53,27.53,0,0,0-8.18-2.27V60.74a2.65,2.65,0,0,0-2.65-2.65H95.28a2.65,2.65,0,0,0-2.65,2.65V66.8a29.63,29.63,0,0,0-6.22,1.8,19.61,19.61,0,0,0-8.62,6.52,15.87,15.87,0,0,0-3,9.5q0,10.23,11.19,16.28a68.73,68.73,0,0,0,11.14,4.49q7,2.28,9.75,4.33a7,7,0,0,1,2.7,5.89,6.4,6.4,0,0,1-2.7,5.48q-2.72,2-7.54,2-11.77,0-12.88-8.94a2.15,2.15,0,0,0-2.11-1.93H75a2.13,2.13,0,0,0-2.13,2.3A18.91,18.91,0,0,0,76,123.37a21.84,21.84,0,0,0,9.5,7.6,31,31,0,0,0,7.1,2.17v6.12a2.65,2.65,0,0,0,2.65,2.65h5.45a2.65,2.65,0,0,0,2.65-2.65v-5.7a25.63,25.63,0,0,0,13.32-4.67,15.8,15.8,0,0,0,6.45-13.37A17.16,17.16,0,0,0,117.87,102.71Z"/><path class="cls-1" d="M178.64,102.71q-5.28-5.14-16.82-8.62a36.49,36.49,0,0,1-9.5-4.06,6.34,6.34,0,0,1-3.23-5.37,6.63,6.63,0,0,1,2.76-5.53Q154.6,77,159.56,77q5.15,0,8,2.5a8.34,8.34,0,0,1,2.72,5.26,2.1,2.1,0,0,0,2.1,1.76h9.3a2.13,2.13,0,0,0,2.13-2.33A18.51,18.51,0,0,0,180.88,76a20,20,0,0,0-8.55-7.2,27.53,27.53,0,0,0-8.18-2.27V60.74a2.65,2.65,0,0,0-2.65-2.65h-5.45a2.65,2.65,0,0,0-2.65,2.65V66.8a29.63,29.63,0,0,0-6.22,1.8,19.61,19.61,0,0,0-8.62,6.52,15.87,15.87,0,0,0-3,9.5q0,10.23,11.19,16.28a68.36,68.36,0,0,0,11.14,4.49q7,2.28,9.75,4.33a7,7,0,0,1,2.7,5.89,6.4,6.4,0,0,1-2.7,5.48q-2.71,2-7.54,2-11.78,0-12.88-8.94a2.15,2.15,0,0,0-2.11-1.93h-9.34a2.13,2.13,0,0,0-2.13,2.3,18.91,18.91,0,0,0,3.16,8.89,21.84,21.84,0,0,0,9.5,7.6,31,31,0,0,0,7.1,2.17v6.12a2.65,2.65,0,0,0,2.65,2.65h5.45a2.65,2.65,0,0,0,2.65-2.65v-5.7a25.63,25.63,0,0,0,13.32-4.67,15.8,15.8,0,0,0,6.45-13.37A17.16,17.16,0,0,0,178.64,102.71Z"/><path class="cls-1" d="M239.41,102.71q-5.28-5.14-16.82-8.62a36.49,36.49,0,0,1-9.5-4.06,6.34,6.34,0,0,1-3.23-5.37,6.63,6.63,0,0,1,2.76-5.53Q215.36,77,220.33,77q5.14,0,8,2.5A8.31,8.31,0,0,1,231,84.8a2.09,2.09,0,0,0,2.09,1.76h9.31a2.13,2.13,0,0,0,2.13-2.33A18.51,18.51,0,0,0,241.65,76a20,20,0,0,0-8.55-7.2,27.53,27.53,0,0,0-8.18-2.27V60.74a2.65,2.65,0,0,0-2.65-2.65h-5.45a2.65,2.65,0,0,0-2.65,2.65V66.8A29.63,29.63,0,0,0,208,68.6a19.61,19.61,0,0,0-8.62,6.52,15.87,15.87,0,0,0-3,9.5q0,10.23,11.19,16.28a68.36,68.36,0,0,0,11.14,4.49q7,2.28,9.75,4.33a7,7,0,0,1,2.7,5.89,6.4,6.4,0,0,1-2.7,5.48q-2.72,2-7.54,2-11.77,0-12.88-8.94a2.15,2.15,0,0,0-2.12-1.93h-9.33a2.13,2.13,0,0,0-2.13,2.3,18.91,18.91,0,0,0,3.16,8.89,21.84,21.84,0,0,0,9.5,7.6,31,31,0,0,0,7.1,2.17v6.12a2.65,2.65,0,0,0,2.65,2.65h5.45a2.65,2.65,0,0,0,2.65-2.65v-5.7a25.63,25.63,0,0,0,13.32-4.67,15.8,15.8,0,0,0,6.45-13.37A17.16,17.16,0,0,0,239.41,102.71Z"/><path class="cls-1" d="M300.18,102.71q-5.28-5.14-16.82-8.62a36.34,36.34,0,0,1-9.5-4.06,6.34,6.34,0,0,1-3.23-5.37,6.63,6.63,0,0,1,2.76-5.53Q276.14,77,281.1,77q5.14,0,8,2.5a8.31,8.31,0,0,1,2.73,5.26,2.09,2.09,0,0,0,2.09,1.76h9.31a2.13,2.13,0,0,0,2.13-2.33A18.51,18.51,0,0,0,302.42,76a20,20,0,0,0-8.55-7.2,27.53,27.53,0,0,0-8.18-2.27V60.74A2.65,2.65,0,0,0,283,58.09h-5.45a2.65,2.65,0,0,0-2.65,2.65V66.8a29.46,29.46,0,0,0-6.22,1.8,19.61,19.61,0,0,0-8.62,6.52,15.87,15.87,0,0,0-3,9.5q0,10.23,11.19,16.28a68.36,68.36,0,0,0,11.14,4.49q7,2.28,9.74,4.33a6.94,6.94,0,0,1,2.71,5.89,6.38,6.38,0,0,1-2.71,5.48q-2.7,2-7.53,2-11.79,0-12.88-8.94a2.15,2.15,0,0,0-2.12-1.93h-9.33a2.13,2.13,0,0,0-2.13,2.3,18.91,18.91,0,0,0,3.16,8.89,21.84,21.84,0,0,0,9.5,7.6,31,31,0,0,0,7.1,2.17v6.12a2.65,2.65,0,0,0,2.65,2.65H283a2.65,2.65,0,0,0,2.65-2.65v-5.7A25.63,25.63,0,0,0,299,128.89a15.8,15.8,0,0,0,6.45-13.37A17.16,17.16,0,0,0,300.18,102.71Z"/></svg>