<svg id="Layer_1" data-name="Layer 1" xmlns="http://www.w3.org/2000/svg" viewBox="0 0 200 200"><defs><style>.cls-1{fill:#c4161c;}</style></defs><title>icon</title><path class="cls-1" d="M122.82,75C111,78.58,95.57,80.53,79.28,80.53c-14.44,0-28.52-1.64-39.59-4.54A68.93,68.93,0,0,1,26.57,71.2l.26,15.28v.11c0,.79,2.32,4.32,13.44,7.75,10.54,3.21,24.78,5,40,5A171.52,171.52,0,0,0,102.47,98a47.14,47.14,0,0,1,31.42-12h0V70.51A67.65,67.65,0,0,1,122.82,75Z"/><path class="cls-1" d="M40.27,141.37c10.54,3.21,24.78,5,40,5,2.73,0,5.44-.07,8.1-.18a47.27,47.27,0,0,1-1.8-12.89,47.79,47.79,0,0,1,.38-5.9c-2.53.09-5.09.15-7.68.15-14.44,0-28.52-1.64-39.59-4.54a68.93,68.93,0,0,1-13.12-4.79l.26,15.28v.11C26.83,134.41,29.15,137.94,40.27,141.37Z"/><path class="cls-1" d="M39.69,99.51a68.29,68.29,0,0,1-13.12-4.8L26.83,110v.11c0,.79,2.32,4.32,13.44,7.74,10.54,3.22,24.78,5,40,5q3.81,0,7.51-.16a47.13,47.13,0,0,1,9.6-19.49c-5.81.55-11.9.83-18.11.83C64.84,104,50.76,102.41,39.69,99.51Z"/><path class="cls-1" d="M89.93,150.78c-3.49.19-7.05.29-10.65.29-14.44,0-28.52-1.63-39.59-4.53a68.29,68.29,0,0,1-13.12-4.8L26.83,157v.1c0,.8,2.32,4.33,13.44,7.75,10.54,3.22,24.78,5,40,5a171,171,0,0,0,22-1.37A47.5,47.5,0,0,1,89.93,150.78Z"/><path class="cls-1" d="M79.33,75.7c15.24,0,29.63-1.79,40.43-5.06,11.39-3.48,13.87-7.06,13.87-7.8,0-.58.31-1.21.31-1.74H134v-14a60.19,60.19,0,0,1-11.55,4.48C110.7,55.09,95.41,57,79.39,57,63.83,57,49,55.19,37.58,51.87a64.58,64.58,0,0,1-11.49-4.42l.21,12.12L26.35,64C30.47,69.11,50.13,75.7,79.33,75.7Z"/><path class="cls-1" d="M40.59,47.18c10.49,3,24.3,4.69,38.85,4.69,15,0,29.25-1.74,40.06-4.95,11.7-3.48,14.34-7.12,14.39-7.91v0c0-.79-2.69-4.27-13.91-7.65-10.76-3.26-25.52-5-40.59-5h-.9c-14,0-27.36,1.58-37.59,4.48-10.91,3.05-14.65,6.53-15.12,8a.35.35,0,0,0-.06.21l.11.21C26.14,40.28,29.25,43.86,40.59,47.18Z"/><path class="cls-1" d="M144.35,140.27a3.6,3.6,0,0,0-2.79,1.13,4.31,4.31,0,0,0-1.06,3.09v2.33a4.11,4.11,0,0,0,1.12,2.91,3.61,3.61,0,0,0,2.79,1.21c2.53,0,3.79-1.39,3.79-4.19v-2.36a4.17,4.17,0,0,0-1.06-3A3.6,3.6,0,0,0,144.35,140.27Z"/><path class="cls-1" d="M125.54,124.34a4.43,4.43,0,0,0,1-3.07V119a4.34,4.34,0,0,0-1-3,3.56,3.56,0,0,0-2.82-1.15A3.6,3.6,0,0,0,120,116a4.46,4.46,0,0,0-1,3.15v2.27a4.18,4.18,0,0,0,1.07,3,3.66,3.66,0,0,0,2.81,1.13A3.49,3.49,0,0,0,125.54,124.34Z"/><path class="cls-1" d="M133.89,92.92a40.39,40.39,0,1,0,40.39,40.39A40.38,40.38,0,0,0,133.89,92.92Zm-20.95,28.26V119a8.91,8.91,0,0,1,2.7-6.75,9.79,9.79,0,0,1,7.08-2.6,10,10,0,0,1,7.13,2.56,9.08,9.08,0,0,1,2.71,6.94v2.24a8.79,8.79,0,0,1-2.71,6.73,11.11,11.11,0,0,1-14.19,0A9,9,0,0,1,112.94,121.18Zm12.84,28.94a2.48,2.48,0,0,1-4.21-2.63L141,116.39a2.48,2.48,0,0,1,3.28-.87h0a2.47,2.47,0,0,1,.92,3.49Zm28.41-3.3a8.86,8.86,0,0,1-2.67,6.71,9.83,9.83,0,0,1-7.11,2.56,9.94,9.94,0,0,1-7.17-2.57,9,9,0,0,1-2.7-6.83v-2.3a8.83,8.83,0,0,1,2.73-6.75,11.18,11.18,0,0,1,14.2,0,9.07,9.07,0,0,1,2.72,7Z"/></svg>