<svg id="Layer_1" data-name="Layer 1" xmlns="http://www.w3.org/2000/svg" viewBox="0 0 200 200"><defs><style>.cls-1{fill:#fff;}</style></defs><title>icon</title><path class="cls-1" d="M176.2,171.82h-5.48V69.11a10.54,10.54,0,0,0-10.53-10.52H144.12A10.53,10.53,0,0,0,133.6,69.11V171.82H118.75V116.43a10.54,10.54,0,0,0-10.52-10.53H92.16a10.54,10.54,0,0,0-10.53,10.53v55.39H66.79V144a10.54,10.54,0,0,0-10.52-10.53H40.19A10.54,10.54,0,0,0,29.67,144v27.86H23.8a5,5,0,1,0,0,10H176.2a5,5,0,0,0,0-10ZM160.74,69.11V171.82H143.57V69.11a.55.55,0,0,1,.55-.54h16.07A.54.54,0,0,1,160.74,69.11Zm-52,47.32v55.39H91.61V116.43a.55.55,0,0,1,.55-.55h16.07A.55.55,0,0,1,108.78,116.43ZM56.81,144v27.86H39.65V144a.55.55,0,0,1,.54-.55H56.27A.55.55,0,0,1,56.81,144Z"/><path class="cls-1" d="M23.8,121.47A4.94,4.94,0,0,0,27.32,120L91.93,56l11,11a5,5,0,0,0,7,0l31.82-31.81v7a5,5,0,0,0,10,0V23.35a5,5,0,0,0-1.45-3.69,5,5,0,0,0-3.65-1.45h-20a5,5,0,1,0,0,10h8.12L106.48,56.46l-11-11a5.11,5.11,0,0,0-7,0L20.27,113a5,5,0,0,0,3.53,8.51Z"/></svg>