<svg id="Layer_1" data-name="Layer 1" xmlns="http://www.w3.org/2000/svg" viewBox="0 0 200 200"><defs><style>.cls-1{fill:#fdb913;}</style></defs><title>icon</title><path class="cls-1" d="M36.81,141.37c10.54,3.21,24.78,5,40,5,2.73,0,5.44-.07,8.09-.18a46.89,46.89,0,0,1-1.41-18.79c-2.53.09-5.09.15-7.68.15-14.45,0-28.52-1.64-39.59-4.54a69.27,69.27,0,0,1-13.13-4.79l.27,15.28v.11C23.37,134.41,25.69,137.94,36.81,141.37Z"/><path class="cls-1" d="M36.23,99.51a68.63,68.63,0,0,1-13.13-4.8L23.37,110v.1c0,.8,2.32,4.33,13.44,7.75,10.54,3.22,24.78,5,40,5,2.53,0,5,0,7.51-.16a47.13,47.13,0,0,1,9.6-19.49c-5.81.55-11.9.83-18.11.83C61.37,104,47.3,102.41,36.23,99.51Z"/><path class="cls-1" d="M86.47,150.78c-3.49.19-7,.29-10.65.29-14.45,0-28.52-1.63-39.59-4.53a68.63,68.63,0,0,1-13.13-4.8L23.37,157v.1c0,.8,2.32,4.33,13.44,7.75,10.54,3.22,24.78,5,40,5a171,171,0,0,0,22-1.37A47.39,47.39,0,0,1,86.47,150.78Z"/><path class="cls-1" d="M37.13,93c10.49,3,24.3,4.69,38.85,4.69a172.11,172.11,0,0,0,25.5-1.81A47,47,0,0,1,129.72,86a2.49,2.49,0,0,0,.71-1.17v0c-.05-.79-2.69-4.27-13.92-7.65-10.75-3.26-25.51-5-40.59-5H75c-14,0-27.36,1.58-37.59,4.48-10.91,3.05-14.65,6.53-15.13,8a.39.39,0,0,0,0,.21l.11.21C22.68,86.12,25.79,89.7,37.13,93Z"/><path class="cls-1" d="M140.89,140.27a3.64,3.64,0,0,0-2.8,1.13,4.35,4.35,0,0,0-1.05,3.09v2.32a4.12,4.12,0,0,0,1.12,2.92,3.61,3.61,0,0,0,2.79,1.21c2.52,0,3.79-1.39,3.79-4.19v-2.36a4.22,4.22,0,0,0-1.06-3A3.6,3.6,0,0,0,140.89,140.27Z"/><path class="cls-1" d="M122.08,124.34a4.43,4.43,0,0,0,1-3.07V119a4.34,4.34,0,0,0-1-3,4,4,0,0,0-5.59,0,4.46,4.46,0,0,0-1,3.15v2.27a4.14,4.14,0,0,0,1.07,3,3.66,3.66,0,0,0,2.81,1.13A3.49,3.49,0,0,0,122.08,124.34Z"/><path class="cls-1" d="M130.43,92.92a40.39,40.39,0,1,0,40.39,40.39A40.39,40.39,0,0,0,130.43,92.92Zm-21,28.26V119a8.91,8.91,0,0,1,2.7-6.75,9.79,9.79,0,0,1,7.08-2.6,10,10,0,0,1,7.13,2.56,9.11,9.11,0,0,1,2.7,6.94v2.24a8.82,8.82,0,0,1-2.7,6.73,11.13,11.13,0,0,1-14.2,0A9,9,0,0,1,109.48,121.18Zm12.84,28.94A2.48,2.48,0,0,1,119,151h0a2.48,2.48,0,0,1-.93-3.5l19.43-31.1a2.48,2.48,0,0,1,4.21,2.62Zm28.41-3.31a8.86,8.86,0,0,1-2.67,6.72,9.83,9.83,0,0,1-7.11,2.56,9.94,9.94,0,0,1-7.17-2.57,9,9,0,0,1-2.7-6.83v-2.3a8.83,8.83,0,0,1,2.73-6.75,11.18,11.18,0,0,1,14.2,0,9.07,9.07,0,0,1,2.72,7Z"/></svg>