<svg id="Layer_1" data-name="Layer 1" xmlns="http://www.w3.org/2000/svg" viewBox="0 0 200 200"><defs><style>.cls-1{fill:#fff;}</style></defs><title>icon</title><path class="cls-1" d="M179.79,128.65a4.76,4.76,0,0,0-6.11-.5,13.7,13.7,0,0,0-2.65-3.69l-.45-.45a13.82,13.82,0,0,0-9.87-4.09h0a13.9,13.9,0,0,0-9.86,4.09l-17.12,17.17h-29V81h47.44a4.75,4.75,0,0,0,4.75-5,57,57,0,0,0-52.19-53.78V20.4a4.76,4.76,0,0,0-9.52,0v1.79A57,57,0,0,0,43,76a4.75,4.75,0,0,0,4.75,5H95.23v60.2H39.41A14.27,14.27,0,0,0,26,160.25H23.57a4.76,4.76,0,1,0,0,9.52H26.4v9.83a4.76,4.76,0,1,0,9.52,0v-9.83H95.23v8.63a4.76,4.76,0,0,0,9.52,0v-8.63H139v8.56a4.76,4.76,0,1,0,9.52,0V166.81l31.28-31.43a4.76,4.76,0,0,0,0-6.73ZM146.91,71.47H127.08c-.73-12.24-3.25-23.56-7.21-32.29-.69-1.52-1.41-2.94-2.18-4.27A47.48,47.48,0,0,1,146.91,71.47ZM82.28,34.91q-1.14,2-2.18,4.27c-4,8.73-6.47,20-7.21,32.29H53.06A47.52,47.52,0,0,1,82.28,34.91Zm6.49,8.2C92.07,35.84,96.26,31.5,100,31.5s7.92,4.34,11.22,11.61c3.43,7.57,5.64,17.5,6.34,28.36H82.42c.71-10.86,2.92-20.8,6.35-28.36ZM39.41,150.7H135.7a4.76,4.76,0,0,0,3.36-1.4l18.52-18.57a4.39,4.39,0,0,1,3.13-1.29h0a4.42,4.42,0,0,1,3.14,1.29l.45.45a4.46,4.46,0,0,1,0,6.29l-22.7,22.74H39.41a4.76,4.76,0,1,1,0-9.51Z"/></svg>